<svg xmlns="http://www.w3.org/2000/svg" viewBox="0 0 100 100" width="100" height="100"><rect width="100" height="100" rx="22" ry="22" fill="#14110D"/><g transform="translate(12.462 69.771) scale(0.05492 -0.05492)" fill="#FF6B2C"><path d="M409 0L247 0Q211 0 211 36L211 527L64 527Q28 527 28 563L28 684Q28 720 64 720L592 720Q628 720 628 684L628 563Q628 527 592 527L445 527L445 36Q445 0 409 0ZM323 90L333 90L333 620L538 620L538 630L118 630L118 620L323 620Z"/><g transform="translate(656 0)"><path d="M489 0L105 0Q69 0 69 36L69 684Q69 720 105 720L424 720Q522 720 569 683Q616 646 616 567L616 519Q616 436 557 411Q622 405 652.5 367.5Q683 330 683 256L683 164Q683 80 636 40Q589 0 489 0ZM180 630L180 90L449 90Q505 90 533 102.5Q561 115 570.5 138Q580 161 580 190L580 254Q580 287 570.5 313Q561 339 533.5 354Q506 369 450 369Q493 380 503.5 405Q514 430 514 460L514 524Q514 553 504.5 577Q495 601 467 615.5Q439 630 383 630ZM190 359L450 359Q501 359 526.5 345Q552 331 561 307.5Q570 284 570 254L570 190Q570 163 560.5 142.5Q551 122 525 111Q499 100 449 100L190 100ZM383 369L190 369L190 620L383 620Q434 620 460 607.5Q486 595 495 573Q504 551 504 524L504 460Q504 436 496.5 415.5Q489 395 463.5 382Q438 369 383 369ZM294 288L294 170L424 170Q462 170 462 210L462 249Q462 288 424 288ZM294 550L294 442L379 442Q417 442 417 482L417 510Q417 550 379 550Z"/></g></g></svg>
